<?xml version="1.0" encoding="UTF-8"?>
<svg width="960px" height="960px" viewBox="0 0 960 960" version="1.1" xmlns="http://www.w3.org/2000/svg" xmlns:xlink="http://www.w3.org/1999/xlink">
    <!-- Generator: Sketch 60.1 (88133) - https://sketch.com -->
    <title>icon</title>
    <desc>Created with Sketch.</desc>
    <g id="icon" stroke="none" stroke-width="1" fill="none" fill-rule="evenodd" stroke-linejoin="round">
        <path d="M480,24 L457.569233,24 C453.115308,24 449.432103,27.4712246 449.167271,31.9106722 C427.77998,390.133399 431.702921,440.54761 329.330019,507.589798 C203.492121,590.000218 131.021406,622.78723 104.852618,690.262745 C82.3142008,748.379869 89.9091196,814.626637 123.781137,848.453104 C157.653154,882.279571 205.607471,937 480,937" id="Stroke-1" stroke="#000000" stroke-width="40"></path>
        <path d="M484,804 C378.220358,804 92,796.337856 92,741" id="Stroke-3" stroke="#000000" stroke-width="20"></path>
        <path d="M472,24 L492.773787,24 C498.157603,24 502.611535,28.1940941 502.931182,33.5621915 C524.208216,390.288393 520.454999,440.6505 622.670223,507.589798 C748.508323,590.000218 820.979155,622.78723 847.147324,690.262745 C869.685778,748.379869 862.090847,814.626637 828.219436,848.453104 C794.347364,882.279571 746.39297,937 472,937" id="Stroke-5" stroke="#000000" stroke-width="40"></path>
        <path d="M476,804 C581.779822,804 868,796.337856 868,741" id="Stroke-7" stroke="#000000" stroke-width="20"></path>
    </g>
</svg>