<?xml version="1.0" encoding="utf-8"?>
<!-- Generator: Adobe Illustrator 22.0.1, SVG Export Plug-In . SVG Version: 6.00 Build 0)  -->
<svg version="1.1" id="Layer_1" xmlns="http://www.w3.org/2000/svg" xmlns:xlink="http://www.w3.org/1999/xlink" x="0px" y="0px"
	 viewBox="0 0 100 100" style="enable-background:new 0 0 100 100;" xml:space="preserve">
<g transform="translate(0, 0)">
	<path d="M52.6,0.1C79.3,1.9,99.3,23.4,100,50c0,27.6-22.4,50-50,50S0,77.6,0,50S22.4,0,50,0L52.6,0.1z M50,4C24.6,4,4,24.6,4,50
		s20.6,46,46,46s46-20.6,46-46S75.4,4,50,4z"/>
	<path d="M84.2,70.6c2,0.5,3.6,1.9,5.2,3.1c1.1,0.8,2.2,1.6,3.3,2.3C83.4,91,67.6,99.6,50,100C31.5,99.9,14.7,89.6,5.9,73.4
		c2-1.2,4.3-2.4,6.6-1.7c1.7,0.5,3.2,1.7,4.7,2.6c6.4,4.2,6.4,4.2,11.4,0.4s5-3.9,11-0.3c6,3.6,6,3.6,11.2-0.5
		c5.2-4.2,5.2-4.2,12-0.1c6.8,4,7,4,14-0.1c2-1,3.9-2.7,6.2-3.1C83.4,70.5,83.8,70.6,84.2,70.6z"/>
</g>
</svg>
