<?xml version="1.0" encoding="utf-8"?>
<!-- Generator: Adobe Illustrator 22.0.1, SVG Export Plug-In . SVG Version: 6.00 Build 0)  -->
<svg version="1.1" id="Layer_1" xmlns="http://www.w3.org/2000/svg" xmlns:xlink="http://www.w3.org/1999/xlink" x="0px" y="0px"
	 viewBox="0 0 59 64" style="enable-background:new 0 0 59 64;" xml:space="preserve">
<path d="M53.4,2c-2.2-1.4-4.7-2.1-6.9-2c-2.4,0.1-4.3,1-5.3,2.7c-1.7-0.4-3.5-0.5-5.3-0.4C34.6,2.4,33.3,2.6,32,3V1c0-0.6-0.4-1-1-1
	h-8c-0.6,0-1,0.4-1,1v6h-3c-0.6,0-1,0.4-1,1v3h-2c-0.6,0-1,0.4-1,1v4c0,0.6,0.4,1,1,1h2v2h-0.7c-0.2,0-0.3,0.1-0.5,0.1
	C6.6,24.7,0,38.1,0,53.3c0,3.3,0.3,6.7,1,9.9C1.1,63.7,1.5,64,2,64H52c0.5,0,0.9-0.3,1-0.8c0.7-3.2,1-6.6,1-9.9
	c0-15.2-6.6-28.6-16.8-34.2c-0.2-0.1-0.3-0.1-0.5-0.1H36v-2h2c0.6,0,1-0.4,1-1v-4c0-0.6-0.4-1-1-1h-2V8c0-0.6-0.4-1-1-1h-3V5
	c1.3-0.4,2.7-0.7,4.1-0.7c1.5-0.1,3,0,4.4,0.3c-0.5,3.1,1.6,6.9,5.5,9.3c2.1,1.3,4.4,2,6.6,2h0.3c1.2,0,2.3-0.3,3.2-0.8
	c0.9-0.4,1.6-1.1,2.1-1.9C60.3,9.9,58.2,5,53.4,2z M35,21C35,21,35,21,35,21l1.5,0C45.8,26.2,52,39.1,52,53.3c0,2.9-0.3,5.9-0.8,8.7
	H2.8C2.3,59.2,2,56.2,2,53.3C2,39.1,8.2,26.2,17.6,21H19c0,0,0,0,0,0h6.9v22.9c-0.8,0.1-1.7,0.2-2.8,0.1c-2.5-0.2-4-1-5.6-1.9
	c-1.7-0.9-3.5-1.8-6.4-2.1c-1.5-0.2-2.9-0.1-4.4,0.1c0,0,0,0,0,0c0,0,0,0,0,0c0,0-0.1,0-0.1,0c-0.1,0-0.1,0.1-0.2,0.1
	c-0.1,0-0.1,0.1-0.1,0.1c0,0-0.1,0.1-0.2,0.1c0,0.1-0.1,0.1-0.1,0.2c0,0.1,0,0.1-0.1,0.1c0,0,0,0,0,0.1C4.6,45.1,4,49,4,53.3
	c0,1.9,0.1,3.9,0.4,5.8c0.1,0.5,0.5,0.9,1,0.9h43.3c0.5,0,0.9-0.4,1-0.9c0.2-1.9,0.4-3.9,0.4-5.8c0-4.5-0.6-8.5-2.1-12.9
	c0,0,0,0,0,0c0,0,0-0.1-0.1-0.1c0-0.1-0.1-0.2-0.1-0.2c0,0-0.1-0.1-0.1-0.1c-0.1-0.1-0.1-0.1-0.2-0.1c-0.1,0-0.2-0.1-0.3-0.1
	c0,0-0.1,0-0.1,0c0,0,0,0,0,0c-4.3-0.5-7.3,0-9.3,0.4c-3.2,0.6-5.3,1.6-7.2,2.4c-0.9,0.4-1.8,0.8-2.7,1.1V21H35z"/>
</svg>
