<?xml version="1.0" encoding="utf-8"?>
<!-- Generator: Adobe Illustrator 21.0.0, SVG Export Plug-In . SVG Version: 6.00 Build 0)  -->
<svg version="1.1" id="Layer_1" xmlns="http://www.w3.org/2000/svg" xmlns:xlink="http://www.w3.org/1999/xlink" x="0px" y="0px"
	 viewBox="0 0 1417.3 1417.3" style="enable-background:new 0 0 1417.3 1417.3;" xml:space="preserve">
<g>
	<g>
		<path d="M409.4,458.3c-16.6,0-30.3,0-45.2,0c-13.2-19.7-26.8-40-40.6-60.4c-14.2,0-27.9,0-43.6,0c0,20,0,39.7,0,60.1
			c-12.9,0-23.9,0-36.6,0c0-20,0-39.7,0-60c-8.2-0.5-14.7-0.8-22.4-1.3c0-10.7,0-21.1,0-32.3c7.2-0.6,14.1-1.1,22.4-1.8
			c0-32.6,0-64.7,0-97.1c37.7,0,74-1.8,110,0.6c27.8,1.9,47.7,24.6,52.5,52.7c4.6,26.9-7.9,51.8-32.9,65.4
			c-3.1,1.7-6.4,3.2-11.5,5.7C377.1,412.1,392.4,434,409.4,458.3z M280.4,364.8c23.8-1.3,45.8-1.1,67.3-4.2
			c14.5-2.1,22-13.6,22.2-28.9c0.2-15.9-6.8-29.3-21.7-30.8c-22.4-2.4-45.2-0.6-67.9-0.6C280.4,321.2,280.4,341.5,280.4,364.8z"/>
	</g>
	<g>
		<path d="M397.1,1022.1c-8.2,7.2-16.5,14.5-25.2,22.2c-18.3-17.2-39.3-26.2-64.5-21.1c-6.2,1.3-12.7,3.6-17.7,7.4
			c-15,11.2-12.5,29.2,5.4,34.4c16.7,4.8,34.3,6.4,51.5,9.5c5.9,1.1,11.9,2,17.6,3.7c41.3,11.9,52.5,58.2,21.4,88.4
			c-28.1,27.3-83.5,31.6-122.3,9c-8.9-5.2-16.9-12-27.2-19.4c9.9-8.9,18.2-16.4,27.3-24.6c19.7,18.8,42.4,28.7,69.5,24.2
			c6.8-1.1,14.9-2.3,19.4-6.7c5.9-5.6,12.2-14.5,12-21.7c-0.2-5.9-8.8-14.6-15.4-16.6c-15.1-4.8-31.3-6.1-47-9.2
			c-8.8-1.7-17.8-3.3-26.2-6.3c-36.4-13.4-44.5-56-15.9-82.3C293.7,981.7,366.8,986.4,397.1,1022.1z"/>
	</g>
	<g>
		<path d="M816.2,833.7c-13.4,0-25,0-38.4,0c-4.9-11.3-10.1-23.3-15.5-35.8c-27.1,0-54.2,0-82.3,0c-4.9,11.5-9.9,23.2-15.1,35.5
			c-12.1,0-24,0-38.2,0c23.6-54.1,46.6-106.8,70.4-161.4c-15.2,0-28.6,0-43.2,0c0-10.9,0-20.3,0-31.2c25.8,0,52.2,0,80.3,0
			C761.1,704.1,788.4,768.4,816.2,833.7z M721.5,695.5c-10.2,25.1-18.8,46.1-27.9,68.3c19.2,0,36.4,0,55.4,0
			C739.9,741.3,731.4,720.1,721.5,695.5z"/>
	</g>
	<g>
		<path d="M240.3,640c12.4,0,22.5,0,35.4,0c0,6.3-0.1,12.1,0,18c0.4,32.8-0.5,65.6,1.5,98.3c1.9,29.9,23.6,48.4,51.7,47.5
			c26.6-0.8,46.5-21,47.5-50.4c1.1-31.7,0.4-63.5,0.5-95.3c0-5.5,0-11,0-17.5c12.6,0,23.5,0,35.3,0c0,43.4,3.1,86.6-0.8,129.1
			c-4.1,44.8-46.2,71.9-95.9,67.8c-42.5-3.5-74.6-37.6-75.1-80.8C239.9,718.3,240.3,679.9,240.3,640z"/>
	</g>
	<g>
		<path d="M1029.4,833c0-64.7,0-128.1,0-192.4c11.5,0,22.5,0,35,0c0,52.9,0,105.4,0,158.9c25.9,0,50.2,0,76.2,0c0-14.4,0-29,0-44.6
			c12.9,0,24.3,0,36.4,0c0,26,0,51.5,0,78.2C1128.3,833,1079.6,833,1029.4,833z"/>
	</g>
	<g>
		<path d="M1084,298.2c-20.6,0-38.4,0-57.1,0c0-11.3,0-21.3,0-32.7c49.2,0,98.6,0,148.7,0c0,10.2,0,20.3,0,32.2c-18,0-36.2,0-56.2,0
			c0,54.2,0,106.8,0,160.3c-12.3,0-22.9,0-35.4,0C1084,405.7,1084,353.3,1084,298.2z"/>
	</g>
	<g>
		<path d="M735.5,458.4c-12.1,0-23.1,0-34.8,0c0-64.6,0-128.3,0-192.8c11.8,0,22.8,0,34.8,0C735.5,329.7,735.5,393.4,735.5,458.4z"
			/>
	</g>
	<g>
		<path d="M1119.5,1154.9c-0.3-17.3,12.5-30.4,29.8-30.4c17.2,0,30.8,13.4,30.6,30.1c-0.2,15.5-13.9,29.5-29.7,30.1
			C1133.6,1185.4,1119.8,1172,1119.5,1154.9z"/>
	</g>
	<g>
		<path d="M727.5,1154.9c-0.3-17.4,12.4-30.4,29.6-30.4c16.9,0,30.7,13.6,30.5,30.1c-0.2,15.5-13.9,29.4-29.5,30.1
			C741.6,1185.4,727.8,1171.9,727.5,1154.9z"/>
	</g>
	<g>
		<path d="M954.5,1124.5c17.1,0.3,29.5,13.6,28.9,31.1c-0.5,16.3-13.8,29.3-29.9,29.2c-16.1-0.1-30.6-14.9-30.3-30.9
			C923.5,1137.3,937.5,1124.2,954.5,1124.5z"/>
	</g>
	<g>
		<path d="M1387.6,1355.4H29.8V62h1357.8V1355.4z M81.6,1303.5h1254.1V113.8H81.6V1303.5z"/>
	</g>
</g>
</svg>
